<?xml version="1.0" encoding="UTF-8"?>
<svg width="170px" height="26px" viewBox="0 0 170 26" version="1.1" xmlns="http://www.w3.org/2000/svg" xmlns:xlink="http://www.w3.org/1999/xlink">
    <!-- Generator: Sketch 56.3 (81716) - https://sketch.com -->
    <title>Deck 15</title>
    <desc>Created with Sketch.</desc>
    <g id="Celebrity-View-1" stroke="none" stroke-width="1" fill="none" fill-rule="evenodd" stroke-linecap="square">
        <g id="Celebrity-Design-3D-1C" transform="translate(-1697.000000, -384.000000)" stroke="#547691">
            <g id="Group-18" transform="translate(1620.000000, 207.000000)">
                <g id="Deck-15" transform="translate(162.109375, 189.679687) rotate(-90.000000) translate(-162.109375, -189.679687) translate(150.109375, 105.179687)">
                    <polygon id="Path" points="0.64262094 40.6328294 2.68646311 34.8876277 2.71834832 34.9037478 2.76298762 34.9779002 2.76298762 35.1262051 2.55254521 35.7162005 2.29108646 36.4480528 3.00531524 37.1702331 3.50272457 41.1647925 3.48359344 41.1647925 3.65258507 42.4801923 2.89690552 42.4801923 4.51667435 55.701894 5.04596889 55.701894 5.49555039 59.5288044 5.58164047 59.7157975 9.75222636 64.2810084 9.86063609 64.3551608 9.98817694 64.390625 10.0455703 64.390625 10.0455703 64.2100799 13.3138047 64.2100799 13.3138047 64.390625 13.3711981 64.390625 13.5019274 64.3551608 13.6135257 64.2810084 17.774546 59.7157975 17.8670131 59.5288044 18.3325372 55.701894 18.8458892 55.701894 20.465658 42.4801923 19.7259211 42.4801923 20.3444942 37.1831292 21.0714771 36.4480528 20.5931989 35.1262051 20.5931989 34.9779002 20.6569693 34.8972997 22.7199426 40.6328294 23.6796875 40.2781873 21.6007716 34.5329856 22.0981809 34.3492165 22.2065906 35.0262605 22.4967461 35.8709534 22.7454508 35.8709534 22.7454508 4.86233927 22.0981809 3.46633907 18.2049964 0.800075406 17.395112 0.600186231 16.582039 0.390625 6.77733597 0.390625 5.96426303 0.600186231 5.15756713 0.800075406 1.32815302 3.50825132 0.613924248 4.94293974 0.613924248 35.8709534 0.865817432 35.8709534 1.14959583 35.0262605 1.25800556 34.3492165 1.75541488 34.5329856 -0.3203125 40.2781873"></polygon>
                    <path d="M23.891956,108.572918 L22.3350092,108.572918 L22.5492093,112.729452 L22.3605853,112.729452 L22.1495823,109.228372 L19.112417,109.228372 L19.1347961,108.994966 L17.0982968,100.432506 L16.7785952,98.9585346 L14.1858151,97.890625 L10.2375002,97.890625 L7.60635594,98.9585346 L5.25335208,108.994966 L5.27573119,109.237964 L2.24495991,109.237964 L2.02756282,112.726255 L1.8453329,112.726255 L2.04994193,108.569721 L0.49299508,108.569721 L0.739165321,112.726255 L0.1796875,112.726255 L0.1796875,165.162533 L0.22124871,165.517438 L0.358720403,165.837171 L0.572920483,166.115339 L1.85172693,167.423049 L2.96109152,168.506945 L3.23603491,168.727561 L3.55573652,168.861849 L6.54174958,168.890625 L7.71185747,168.890625 C7.92694364,168.872697 8.13333778,168.797637 8.30969949,168.673206 C8.65497723,168.45259 10.0360882,166.933857 10.0904375,166.879502 L10.7138556,167.653257 L10.6211421,167.752374 C11.0413471,168.176081 11.613348,168.41441 12.2100592,168.41441 C12.8067703,168.41441 13.3787712,168.176081 13.7989762,167.752374 L14.1858151,168.072107 L14.7836571,168.567694 C15.0036953,168.737017 15.2634622,168.847098 15.5381529,168.887428 L20.7908504,168.84906 L21.110552,168.714772 L21.3950865,168.494156 L23.7800605,166.10255 L24.0006546,165.824382 L24.1381263,165.504648 L24.1796875,165.149744 L24.1796875,112.713466 L23.6489828,112.713466 L23.891956,108.572918 Z" id="Path"></path>
                </g>
            </g>
        </g>
    </g>
</svg>