<?xml version="1.0" encoding="UTF-8"?>
<svg width="192px" height="29px" viewBox="0 0 192 29" version="1.1" xmlns="http://www.w3.org/2000/svg" xmlns:xlink="http://www.w3.org/1999/xlink">
    <!-- Generator: Sketch 56.3 (81716) - https://sketch.com -->
    <title>Deck 06</title>
    <desc>Created with Sketch.</desc>
    <g id="Celebrity-View-1" stroke="none" stroke-width="1" fill="none" fill-rule="evenodd">
        <g id="Celebrity-Design-3D-1C" transform="translate(-1677.000000, -736.000000)" stroke="#547691">
            <g id="Group-18" transform="translate(1620.000000, 207.000000)">
                <g id="Deck-06" transform="translate(153.109375, 543.179687) rotate(-90.000000) translate(-153.109375, -543.179687) translate(138.609375, 447.679687)">
                    <path d="M28.1687051,130.183769 L28.1687051,127.178672 C28.1989273,126.481639 27.7741879,125.850319 27.132793,125.638923 L27.132793,124.772006 L27.1951974,124.613502 L27.3387274,124.558511 L27.8847653,124.558511 L27.8847653,123.203144 C27.9520682,123.102771 27.9860214,122.982411 27.9814921,122.860259 L27.9222079,120.469767 C27.9201908,120.372649 27.9076308,120.276076 27.8847653,120.181873 L27.8847653,97.6193789 L26.9955035,97.6193789 L26.8519735,97.5546835 L26.7895692,97.4058843 L26.7895692,95.4391465 C27.5259404,95.2774082 28.0906997,94.4687167 28.0906997,93.4691739 L28.0906997,89.6553847 C28.0906997,88.6655462 27.5259404,87.8471504 26.7895692,87.6854121 L26.7895692,85.6733876 C27.5259404,85.5116493 28.0906997,84.7029578 28.0906997,83.703415 L28.0906997,79.886391 C28.0906997,78.9159612 27.5259404,78.0781568 26.7895692,77.9196532 L26.7895692,75.9043939 C27.5259404,75.7426556 28.0906997,74.9339641 28.0906997,73.9344214 L28.0906997,70.1173973 C28.0906997,69.1307937 27.5259404,68.3123979 26.7895692,68.1506595 L26.7895692,66.429764 C27.4720571,66.2522869 27.943351,65.6062095 27.9222079,64.8770762 L27.9222079,61.8363961 C27.943351,61.1072629 27.4720571,60.4611855 26.7895692,60.2837084 L26.7895692,58.8312984 C27.472539,58.6524845 27.9436512,58.0053108 27.9222079,57.2753759 L27.9222079,54.2508696 C27.9424662,53.521326 27.4718509,52.874835 26.7895692,52.6949471 L26.7895692,51.2425371 C27.472539,51.0637232 27.9436512,50.4165495 27.9222079,49.6866146 L27.9222079,46.6621083 C27.9436512,45.9321733 27.472539,45.2849996 26.7895692,45.1061857 L26.7895692,43.6893582 L27.3387274,43.1232741 L27.3387274,26.6518451 L26.8207713,26.1148739 C26.7926894,18.6490337 26.5555529,8.2621997 25.5040398,3.88232639 L25.6350889,1.75061552 C25.6350889,1.75061552 25.4665972,1.10366229 25.1420946,-0.0834968711 L3.29745528,-0.109375 C2.97295271,1.05837557 2.80446099,1.75061552 2.80446099,1.75061552 L2.93238989,3.88232639 C1.87775653,8.25573017 1.62189874,18.6328599 1.58757635,26.1116391 L1.05713946,26.6518451 C1.03529794,26.7585923 1.05713946,32.4323721 1.05713946,32.4323721 L1.05713946,43.1329784 L1.60629765,43.6990625 L1.60629765,45.1126553 C0.908320142,45.2764816 0.420309412,45.9302526 0.442456709,46.6718125 L0.442456709,49.6963189 C0.420309412,50.4378788 0.908320142,51.0916498 1.60629765,51.2554761 L1.60629765,52.7014166 C0.908320142,52.8652429 0.420309412,53.5190139 0.442456709,54.2605739 L0.442456709,57.2850802 C0.420309412,58.0266401 0.908320142,58.6804111 1.60629765,58.8442374 L1.60629765,60.2901779 C0.912340492,60.4519392 0.425131331,61.0992198 0.442456709,61.8363961 L0.442456709,64.8641372 C0.421550244,65.605279 0.909021856,66.2583278 1.60629765,66.4232944 L1.60629765,68.131251 C0.851205138,68.2768154 0.277085207,69.1016808 0.277085207,70.1044583 L0.277085207,73.9214823 C0.277085207,74.9242598 0.851205138,75.7523599 1.60629765,75.8979244 L1.60629765,77.9002446 C0.851205138,78.0458091 0.277085207,78.8706745 0.277085207,79.8734519 L0.277085207,83.690476 C0.277085207,84.6932535 0.851205138,85.5181188 1.60629765,85.6669181 L1.60629765,87.6692383 C0.851205138,87.8148028 0.277085207,88.6396681 0.277085207,89.6424456 L0.277085207,93.4594696 C0.277085207,94.4622471 0.851205138,95.2871125 1.60629765,95.432677 L1.60629765,97.3735366 L1.55013375,97.5320402 L1.39724311,97.5967355 L0.507981266,97.5967355 L0.507981266,120.013665 C0.461319165,120.150972 0.436041046,120.295106 0.433096058,120.440654 L0.370691718,122.831146 C0.365030557,122.976226 0.414300037,123.117852 0.507981266,123.225787 L0.507981266,124.519694 L1.05713946,124.519694 L1.20690988,124.574685 L1.25995357,124.733188 L1.25995357,125.590401 C0.583138307,125.788062 0.133451061,126.451547 0.183478697,127.178672 L0.183478697,130.190239 C0.157547634,130.905126 0.609977149,131.544359 1.27555465,131.733222 L1.27555465,133.172693 C0.606927292,133.361044 0.153400031,134.004515 0.183478697,134.722146 L0.183478697,137.733713 C0.154578988,138.450974 0.60762588,139.093763 1.27555465,139.283166 L1.27555465,140.722637 C0.60740899,140.909669 0.153710548,141.552039 0.183478697,142.268856 L0.183478697,145.293362 C0.158176749,146.006617 0.610941816,146.643642 1.27555465,146.829876 L1.27555465,148.272581 C0.606225048,148.459873 0.152213153,149.104032 0.183478697,149.822034 L0.183478697,152.833602 C0.156065455,153.549676 0.608803086,154.190685 1.27555465,154.37982 L1.27555465,155.822526 C0.606706463,156.008494 0.152521196,156.651553 0.183478697,157.368744 L0.183478697,160.377076 C0.152213153,161.095079 0.606225048,161.739237 1.27555465,161.926529 L1.27555465,163.938554 L1.4128442,164.077649 L1.4128442,165.420077 L1.2849153,165.562406 L1.00409577,165.847066 L1.00409577,179.879481 L1.00409577,184.136433 C1.00781288,184.838277 1.27272402,185.511542 1.7435872,186.015832 L3.84349325,188.202534 C5.01357463,189.172964 5.80922997,190.877686 7.49726738,190.890625 L20.9142005,190.890625 C21.8502656,190.890625 22.474309,190.373062 23.1295546,189.706701 L24.5742151,188.202534 C25.4104332,187.355026 25.9595914,186.733951 26.4182633,186.287553 C27.6320278,185.103628 27.3948913,184.463145 27.4292137,181.839749 L27.4136126,179.879481 L27.4136126,165.847066 L27.0048641,165.420077 L27.0048641,164.284674 L27.1421537,163.938554 L27.1421537,161.916825 C27.7842275,161.706385 28.2093884,161.074439 28.1780657,160.377076 L28.1780657,157.368744 C28.208288,156.671711 27.7835486,156.040391 27.1421537,155.828995 L27.1421537,154.370116 C27.7835486,154.158719 28.208288,153.527399 28.1780657,152.830367 L28.1780657,149.822034 C28.2071947,149.125331 27.7828731,148.494632 27.1421537,148.282286 L27.1421537,146.823406 C27.7770309,146.610381 28.196924,145.984543 28.1687051,145.293362 L28.1687051,142.281795 C28.1985798,141.585609 27.7737031,140.955411 27.132793,140.745281 L27.132793,139.286401 C27.7741879,139.075005 28.1989273,138.443685 28.1687051,137.746653 L28.1687051,134.735085 C28.1989273,134.038053 27.7741879,133.406733 27.132793,133.195337 L27.132793,131.736457 C27.778861,131.523834 28.2047403,130.8855 28.1687051,130.183769 Z" id="Deck06"></path>
                </g>
            </g>
        </g>
    </g>
</svg>