<?xml version="1.0" encoding="UTF-8"?>
<svg width="61px" height="19px" viewBox="0 0 61 19" version="1.1" xmlns="http://www.w3.org/2000/svg" xmlns:xlink="http://www.w3.org/1999/xlink">
    <!-- Generator: Sketch 56.3 (81716) - https://sketch.com -->
    <title>Deck 16</title>
    <desc>Created with Sketch.</desc>
    <g id="Celebrity-View-1" stroke="none" stroke-width="1" fill="none" fill-rule="evenodd" stroke-linecap="round" stroke-linejoin="round">
        <g id="Celebrity-Design-3D-1C" transform="translate(-1701.000000, -349.000000)" stroke="#9DCBFF">
            <g id="Group-18" transform="translate(1620.000000, 207.000000)">
                <g id="Deck-16" transform="translate(111.109375, 151.679687) rotate(-90.000000) translate(-111.109375, -151.679687) translate(102.109375, 122.179687)">
                    <path d="M17.4586657,10.5686543 L17.4586657,10.5686543 L17.4586657,10.5686543 L17.4586657,10.5523694 L17.4586657,10.5523694 L17.4586657,10.5523694 L17.6796875,10.5523694 L17.6796875,6.26619773 L17.6454447,6.04798078 L17.5458292,5.84930565 L17.3932931,5.69622809 L15.3854191,4.26316157 L14.295875,3.48474589 C14.0530623,3.26001501 13.564324,3.367495 13.2654776,3.34469621 L13.2654776,3.34469621 L13.2654776,0.924767975 L12.7798523,0.390625 L5.58263568,0.390625 L5.11880122,0.879170404 L5.11880122,3.34469621 C4.80750292,3.34469621 4.49620462,3.34469621 4.46818777,3.34469621 L4.27518283,3.37400894 L4.09462982,3.46194711 L0.981646848,5.70274203 L0.829110683,5.85581959 L0.729495228,6.05449472 L0.695252415,6.27271167 L0.695252415,10.5197997 L0.91004824,10.5197997 L0.91004824,10.5197997 L0.91004824,10.5197997 L0.91004824,10.5360846 L0.91004824,10.5360846 L0.91004824,11.2233051 L0.91004824,11.2233051 L0.91004824,11.2233051 L0.91004824,11.2233051 L0.91004824,11.2233051 L0.6796875,11.2233051 L0.6796875,22.9777075 L0.894483325,22.9777075 L0.894483325,22.9777075 L0.894483325,22.9777075 L0.894483325,22.9777075 L0.894483325,22.9777075 L0.894483325,23.6649281 L0.894483325,23.6649281 L0.894483325,23.6649281 L0.894483325,23.6649281 L0.894483325,23.6649281 L0.6796875,23.6649281 L0.6796875,28.0129822 L0.854014546,28.0129822 L0.854014546,28.0129822 L0.854014546,28.0129822 L0.854014546,28.0129822 L0.854014546,28.0129822 L0.854014546,28.0553228 L0.854014546,28.0553228 L0.854014546,28.6318063 C0.854014546,28.6871748 0.854014546,28.6318063 0.854014546,28.7099736 L0.854014546,28.7099736 L0.854014546,28.7099736 L0.854014546,28.7099736 L0.6796875,28.7099736 L0.6796875,32.064652 L0.695252415,32.2177296 L0.713930313,32.3642932 L0.713930313,32.3642932 L0.713930313,32.3642932 L0.788641904,33.0449998 C0.928726138,34.3836142 1.04079352,35.044779 1.18087776,36.3833934 L1.10305318,36.3833934 L1.19644267,38.1714696 L0.720156279,38.1714696 L2.18325827,50.5740089 L2.18325827,50.6358914 L2.98018191,50.6358914 L3.23233354,53.4043153 C2.74215097,53.7746687 2.53514789,54.4327935 2.71932256,55.035331 C2.90349724,55.6378684 3.43708834,56.048194 4.04170911,56.0522314 C4.1464944,56.0459855 4.25061134,56.0307349 4.3530074,56.0066338 L7.29477631,59.2929159 L7.40061773,59.3613123 L7.58739671,59.390625 L7.58739671,58.9020796 L10.7968822,58.9020796 L10.7968822,59.390625 L10.9743222,59.3613123 L11.0801636,59.2929159 L14.0250455,56.0066338 C14.1274491,56.0306917 14.2315626,56.0459418 14.3363438,56.0522314 C14.9399374,56.0467166 15.4722816,55.6372984 15.6574284,55.0362044 C15.8425752,54.4351104 15.6388858,53.7775245 15.1519453,53.4043153 L15.4072099,50.6358914 L16.1854557,50.6358914 L16.1854557,50.5740089 L17.6454447,38.2040393 L17.1473674,38.2040393 L17.2407569,36.4159631 L17.2407569,36.4159631 L17.1660453,36.4159631 C17.3061295,35.0773487 17.4773436,33.7354773 17.6298798,32.3968629 L17.6298798,32.3968629 L17.6298798,32.3968629 L17.6298798,32.3968629 L17.6485577,32.2502993 L17.6703486,32.0972217 L17.6703486,28.7685991 L17.4960215,28.7685991 L17.4960215,28.7685991 L17.4960215,28.7685991 L17.4960215,28.7685991 L17.4960215,28.7685991 C17.4960215,28.6969457 17.4960215,28.7458003 17.4960215,28.6904318 L17.4960215,28.0878925 L17.4960215,28.0878925 L17.4960215,28.0455519 L17.4960215,28.0455519 L17.4960215,28.0455519 L17.4960215,28.0455519 L17.6765745,28.0455519 L17.6765745,11.2786736 L17.4555527,11.2786736 L17.4555527,11.2786736 L17.4555527,11.2786736 L17.4555527,11.2786736 L17.4555527,11.2786736 L17.4555527,10.5686543 L17.4586657,10.5686543 Z" id="Deck16"></path>
                </g>
            </g>
        </g>
    </g>
</svg>