<?xml version="1.0" encoding="UTF-8"?>
<svg width="175px" height="27px" viewBox="0 0 175 27" version="1.1" xmlns="http://www.w3.org/2000/svg" xmlns:xlink="http://www.w3.org/1999/xlink">
    <!-- Generator: Sketch 56.3 (81716) - https://sketch.com -->
    <title>Deck 14</title>
    <desc>Created with Sketch.</desc>
    <g id="Celebrity-View-1" stroke="none" stroke-width="1" fill="none" fill-rule="evenodd">
        <g id="Celebrity-Design-3D-1C" transform="translate(-1697.000000, -422.000000)">
            <g id="Group-18" transform="translate(1620.000000, 207.000000)">
                <g id="Deck-14" transform="translate(164.609375, 228.179687) rotate(-90.000000) translate(-164.609375, -228.179687) translate(151.109375, 141.179687)">
                    <rect id="Rectangle" stroke="#99B4C6" stroke-width="0.5" fill="#9DCBFF" fill-rule="nonzero" x="2.6796875" y="11.390625" width="6" height="4"></rect>
                    <rect id="Rectangle" stroke="#99B4C6" stroke-width="0.5" fill="#9DCBFF" fill-rule="nonzero" x="2.6796875" y="0.390625" width="9" height="11"></rect>
                    <rect id="Rectangle" stroke="#99B4C6" stroke-width="0.5" fill="#9DCBFF" fill-rule="nonzero" x="2.6796875" y="16.390625" width="6" height="4"></rect>
                    <rect id="Rectangle" stroke="#99B4C6" stroke-width="0.5" fill="#9DCBFF" fill-rule="nonzero" x="2.6796875" y="20.390625" width="6" height="4"></rect>
                    <rect id="Rectangle" stroke="#99B4C6" stroke-width="0.5" fill="#9DCBFF" fill-rule="nonzero" x="2.6796875" y="25.390625" width="6" height="4"></rect>
                    <rect id="Rectangle" stroke="#99B4C6" stroke-width="0.5" fill="#9DCBFF" fill-rule="nonzero" x="2.6796875" y="29.390625" width="6" height="4"></rect>
                    <path d="M1.76018609,34.3289773 L1.76018609,38.0897072 L0.1796875,42.6636546 L0.1796875,113.670734 C0.218002617,113.853949 0.818272788,115.248954 0.818272788,115.248954 L0.818272788,169.638107 L0.818272788,169.737751 L0.875745464,169.927394 L1.00665545,170.174895 L4.01439215,173.495266 L4.22831823,173.668838 L4.47098064,173.800625 L4.73918646,173.890625 L5.01377813,173.890625 L21.3264393,173.890625 L21.6042239,173.890625 L21.8724297,173.800625 L22.121478,173.668838 L22.3290182,173.495266 L25.1387935,170.621683 L25.3112115,170.412753 L25.4421215,170.165252 L25.5187517,169.90168 L25.5411022,169.631679 L25.5411022,115.248954 L26.1796875,113.670734 L26.1796875,42.6636546 C26.1796875,42.6636546 24.5608738,38.163636 24.6023818,38.0897072 L24.6023818,5.48385825 L23.8648158,4.09528109 L19.9151658,1.30848387 L18.2197219,0.890625 L11.3964381,0.890625" id="IDP-Deck14" stroke="#9DCBFF" stroke-linecap="round" stroke-linejoin="round"></path>
                </g>
            </g>
        </g>
    </g>
</svg>