<?xml version="1.0" encoding="UTF-8"?>
<svg width="188px" height="29px" viewBox="0 0 188 29" version="1.1" xmlns="http://www.w3.org/2000/svg" xmlns:xlink="http://www.w3.org/1999/xlink">
    <!-- Generator: Sketch 56.3 (81716) - https://sketch.com -->
    <title>Deck 09</title>
    <desc>Created with Sketch.</desc>
    <g id="Celebrity-View-1" stroke="none" stroke-width="1" fill="none" fill-rule="evenodd">
        <g id="Celebrity-Design-3D-1C" transform="translate(-1682.000000, -618.000000)" fill="#9DCBFF" fill-rule="nonzero" stroke="#99B4C6" stroke-width="0.5">
            <g id="Group-18" transform="translate(1620.000000, 207.000000)">
                <g id="Deck-09" transform="translate(156.109375, 425.679687) rotate(-90.000000) translate(-156.109375, -425.679687) translate(142.109375, 332.179687)">
                    <rect id="Rectangle" x="18.1796875" y="13.890625" width="7" height="2"></rect>
                    <rect id="Rectangle" x="18.1796875" y="11.890625" width="7" height="2"></rect>
                    <rect id="Rectangle" x="18.1796875" y="9.890625" width="7" height="2"></rect>
                    <rect id="Rectangle" x="18.6796875" y="8.390625" width="7" height="1"></rect>
                    <rect id="Rectangle" x="18.6796875" y="0.390625" width="7" height="7"></rect>
                    <rect id="Rectangle" x="1.1796875" y="11.890625" width="7" height="2"></rect>
                    <rect id="Rectangle" x="1.1796875" y="9.890625" width="7" height="2"></rect>
                    <rect id="Rectangle" x="1.6796875" y="8.390625" width="7" height="1"></rect>
                    <rect id="Rectangle" x="1.6796875" y="0.390625" width="7" height="7"></rect>
                    <rect id="Rectangle" x="17.1796875" y="0.890625" width="1" height="6"></rect>
                    <rect id="Rectangle" x="16.1796875" y="0.890625" width="1" height="6"></rect>
                    <rect id="Rectangle" x="14.1796875" y="0.890625" width="1" height="6"></rect>
                    <rect id="Rectangle" x="12.1796875" y="0.890625" width="1" height="6"></rect>
                    <rect id="Rectangle" x="10.1796875" y="0.890625" width="1" height="6"></rect>
                    <rect id="Rectangle" x="9.1796875" y="0.890625" width="1" height="6"></rect>
                    <rect id="Rectangle" x="18.1796875" y="15.890625" width="7" height="2"></rect>
                    <rect id="Rectangle" x="18.1796875" y="17.890625" width="7" height="2"></rect>
                    <rect id="Rectangle" x="18.1796875" y="19.890625" width="7" height="2"></rect>
                    <rect id="Rectangle" x="18.1796875" y="21.890625" width="7" height="2"></rect>
                    <rect id="Rectangle" x="18.1796875" y="23.890625" width="7" height="2"></rect>
                    <rect id="Rectangle" x="18.1796875" y="25.890625" width="7" height="2"></rect>
                    <rect id="Rectangle" x="18.1796875" y="27.890625" width="7" height="2"></rect>
                    <rect id="Rectangle" x="18.1796875" y="29.890625" width="7" height="2"></rect>
                    <rect id="Rectangle" x="18.1796875" y="31.890625" width="7" height="2"></rect>
                    <rect id="Rectangle" x="18.1796875" y="33.890625" width="7" height="2"></rect>
                    <rect id="Rectangle" x="18.1796875" y="35.890625" width="7" height="2"></rect>
                    <rect id="Rectangle" x="18.1796875" y="37.890625" width="7" height="2"></rect>
                    <rect id="Rectangle" x="18.1796875" y="38.890625" width="7" height="2"></rect>
                    <rect id="Rectangle" x="18.1796875" y="40.890625" width="7" height="2"></rect>
                    <rect id="Rectangle" x="18.1796875" y="42.890625" width="7" height="2"></rect>
                    <rect id="Rectangle" x="18.1796875" y="44.890625" width="7" height="2"></rect>
                    <rect id="Rectangle" x="18.1796875" y="46.890625" width="7" height="2"></rect>
                    <rect id="Rectangle" x="18.1796875" y="48.890625" width="7" height="2"></rect>
                    <rect id="Rectangle" x="18.1796875" y="50.890625" width="7" height="2"></rect>
                    <rect id="Rectangle" x="18.1796875" y="52.890625" width="7" height="2"></rect>
                    <rect id="Rectangle" x="17.1796875" y="54.890625" width="7" height="2"></rect>
                    <rect id="Rectangle" x="17.1796875" y="56.890625" width="7" height="2"></rect>
                    <rect id="Rectangle" x="17.1796875" y="58.890625" width="7" height="2"></rect>
                    <rect id="Rectangle" x="17.1796875" y="60.890625" width="7" height="2"></rect>
                    <rect id="Rectangle" x="17.1796875" y="61.890625" width="7" height="2"></rect>
                    <rect id="Rectangle" x="17.1796875" y="63.890625" width="7" height="2"></rect>
                    <rect id="Rectangle" x="17.1796875" y="65.890625" width="7" height="2"></rect>
                    <rect id="Rectangle" x="17.1796875" y="67.890625" width="7" height="2"></rect>
                    <rect id="Rectangle" x="17.1796875" y="69.890625" width="7" height="2"></rect>
                    <rect id="Rectangle" x="17.1796875" y="71.890625" width="7" height="2"></rect>
                    <rect id="Rectangle" x="17.1796875" y="72.890625" width="7" height="2"></rect>
                    <rect id="Rectangle" x="17.1796875" y="74.890625" width="7" height="2"></rect>
                    <rect id="Rectangle" x="17.1796875" y="76.890625" width="7" height="2"></rect>
                    <rect id="Rectangle" x="17.1796875" y="77.890625" width="7" height="2"></rect>
                    <rect id="Rectangle" x="17.1796875" y="79.890625" width="7" height="2"></rect>
                    <rect id="Rectangle" x="17.1796875" y="81.890625" width="7" height="2"></rect>
                    <rect id="Rectangle" x="17.1796875" y="83.890625" width="7" height="2"></rect>
                    <rect id="Rectangle" x="17.1796875" y="85.890625" width="7" height="2"></rect>
                    <rect id="Rectangle" x="17.1796875" y="87.890625" width="7" height="2"></rect>
                    <rect id="Rectangle" x="17.1796875" y="88.890625" width="7" height="2"></rect>
                    <rect id="Rectangle" x="17.1796875" y="90.890625" width="7" height="2"></rect>
                    <rect id="Rectangle" x="17.1796875" y="92.890625" width="7" height="2"></rect>
                    <rect id="Rectangle" x="17.1796875" y="94.890625" width="7" height="2"></rect>
                    <rect id="Rectangle" x="17.1796875" y="96.890625" width="7" height="2"></rect>
                    <rect id="Rectangle" x="17.1796875" y="98.890625" width="7" height="2"></rect>
                    <rect id="Rectangle" x="17.1796875" y="99.890625" width="7" height="2"></rect>
                    <rect id="Rectangle" x="18.1796875" y="101.890625" width="7" height="2"></rect>
                    <rect id="Rectangle" x="19.1796875" y="102.890625" width="7" height="2"></rect>
                    <rect id="Rectangle" x="20.1796875" y="104.890625" width="7" height="2"></rect>
                    <rect id="Rectangle" x="20.6796875" y="107.390625" width="7" height="1"></rect>
                    <rect id="Rectangle" x="20.6796875" y="109.390625" width="7" height="1"></rect>
                    <rect id="Rectangle" x="20.6796875" y="111.390625" width="7" height="1"></rect>
                    <rect id="Rectangle" x="20.6796875" y="113.390625" width="7" height="1"></rect>
                    <rect id="Rectangle" x="20.6796875" y="115.390625" width="7" height="1"></rect>
                    <rect id="Rectangle" x="20.6796875" y="117.390625" width="7" height="1"></rect>
                    <rect id="Rectangle" x="20.6796875" y="118.390625" width="7" height="1"></rect>
                    <rect id="Rectangle" x="20.6796875" y="120.390625" width="7" height="1"></rect>
                    <rect id="Rectangle" x="20.6796875" y="122.390625" width="7" height="1"></rect>
                    <rect id="Rectangle" x="20.6796875" y="124.390625" width="7" height="1"></rect>
                    <rect id="Rectangle" x="0.6796875" y="107.390625" width="7" height="1"></rect>
                    <rect id="Rectangle" x="0.6796875" y="109.390625" width="7" height="1"></rect>
                    <rect id="Rectangle" x="0.6796875" y="111.390625" width="7" height="1"></rect>
                    <rect id="Rectangle" x="0.6796875" y="113.390625" width="7" height="1"></rect>
                    <rect id="Rectangle" x="0.6796875" y="115.390625" width="7" height="1"></rect>
                    <rect id="Rectangle" x="0.6796875" y="117.390625" width="7" height="1"></rect>
                    <rect id="Rectangle" x="0.6796875" y="118.390625" width="7" height="1"></rect>
                    <rect id="Rectangle" x="0.6796875" y="120.390625" width="7" height="1"></rect>
                    <rect id="Rectangle" x="0.6796875" y="122.390625" width="7" height="1"></rect>
                    <rect id="Rectangle" x="0.6796875" y="124.390625" width="7" height="1"></rect>
                    <rect id="Rectangle" x="17.1796875" y="139.890625" width="7" height="2"></rect>
                    <rect id="Rectangle" x="17.1796875" y="141.890625" width="7" height="2"></rect>
                    <rect id="Rectangle" x="17.1796875" y="142.890625" width="7" height="2"></rect>
                    <rect id="Rectangle" x="17.1796875" y="144.890625" width="7" height="2"></rect>
                    <rect id="Rectangle" x="17.1796875" y="146.890625" width="7" height="2"></rect>
                    <rect id="Rectangle" x="17.1796875" y="148.890625" width="7" height="2"></rect>
                    <rect id="Rectangle" x="17.1796875" y="150.890625" width="7" height="2"></rect>
                    <rect id="Rectangle" x="17.1796875" y="152.890625" width="7" height="2"></rect>
                    <rect id="Rectangle" x="17.1796875" y="154.890625" width="7" height="2"></rect>
                    <rect id="Rectangle" x="17.1796875" y="155.890625" width="7" height="2"></rect>
                    <rect id="Rectangle" x="17.1796875" y="157.890625" width="7" height="2"></rect>
                    <rect id="Rectangle" x="17.1796875" y="159.890625" width="7" height="2"></rect>
                    <rect id="Rectangle" x="17.1796875" y="160.890625" width="7" height="2"></rect>
                    <rect id="Rectangle" x="17.1796875" y="162.890625" width="7" height="2"></rect>
                    <rect id="Rectangle" x="17.1796875" y="164.890625" width="7" height="2"></rect>
                    <rect id="Rectangle" x="17.1796875" y="166.890625" width="7" height="2"></rect>
                    <rect id="Rectangle" x="17.1796875" y="168.890625" width="7" height="2"></rect>
                    <rect id="Rectangle" x="17.1796875" y="170.890625" width="7" height="2"></rect>
                    <rect id="Rectangle" x="17.1796875" y="171.890625" width="7" height="2"></rect>
                    <rect id="Rectangle" x="17.1796875" y="173.890625" width="7" height="2"></rect>
                    <rect id="Rectangle" x="17.1796875" y="175.890625" width="7" height="2"></rect>
                    <rect id="Rectangle" x="20.6796875" y="179.390625" width="3" height="7"></rect>
                    <rect id="Rectangle" x="1.1796875" y="13.890625" width="7" height="2"></rect>
                    <rect id="Rectangle" x="1.1796875" y="15.890625" width="7" height="2"></rect>
                    <rect id="Rectangle" x="1.1796875" y="17.890625" width="7" height="2"></rect>
                    <rect id="Rectangle" x="1.1796875" y="19.890625" width="7" height="2"></rect>
                    <rect id="Rectangle" x="1.1796875" y="21.890625" width="7" height="2"></rect>
                    <rect id="Rectangle" x="1.1796875" y="23.890625" width="7" height="2"></rect>
                    <rect id="Rectangle" x="1.1796875" y="25.890625" width="7" height="2"></rect>
                    <rect id="Rectangle" x="1.1796875" y="27.890625" width="7" height="2"></rect>
                    <rect id="Rectangle" x="1.1796875" y="29.890625" width="7" height="2"></rect>
                    <rect id="Rectangle" x="1.1796875" y="31.890625" width="7" height="2"></rect>
                    <rect id="Rectangle" x="1.1796875" y="33.890625" width="7" height="2"></rect>
                    <rect id="Rectangle" x="1.1796875" y="35.890625" width="7" height="2"></rect>
                    <rect id="Rectangle" x="1.1796875" y="37.890625" width="7" height="2"></rect>
                    <rect id="Rectangle" x="1.1796875" y="38.890625" width="7" height="2"></rect>
                    <rect id="Rectangle" x="1.1796875" y="40.890625" width="7" height="2"></rect>
                    <rect id="Rectangle" x="1.1796875" y="42.890625" width="7" height="2"></rect>
                    <rect id="Rectangle" x="1.1796875" y="44.890625" width="7" height="2"></rect>
                    <rect id="Rectangle" x="1.1796875" y="46.890625" width="7" height="2"></rect>
                    <rect id="Rectangle" x="1.1796875" y="48.890625" width="7" height="2"></rect>
                    <rect id="Rectangle" x="1.1796875" y="50.890625" width="7" height="2"></rect>
                    <rect id="Rectangle" x="1.1796875" y="52.890625" width="7" height="2"></rect>
                    <rect id="Rectangle" x="3.1796875" y="54.890625" width="7" height="2"></rect>
                    <rect id="Rectangle" x="3.1796875" y="56.890625" width="7" height="2"></rect>
                    <rect id="Rectangle" x="3.1796875" y="58.890625" width="7" height="2"></rect>
                    <rect id="Rectangle" x="3.1796875" y="60.890625" width="7" height="2"></rect>
                    <rect id="Rectangle" x="3.1796875" y="61.890625" width="7" height="2"></rect>
                    <rect id="Rectangle" x="3.1796875" y="63.890625" width="7" height="2"></rect>
                    <rect id="Rectangle" x="3.1796875" y="65.890625" width="7" height="2"></rect>
                    <rect id="Rectangle" x="3.1796875" y="67.890625" width="7" height="2"></rect>
                    <rect id="Rectangle" x="3.1796875" y="69.890625" width="7" height="2"></rect>
                    <rect id="Rectangle" x="3.1796875" y="71.890625" width="7" height="2"></rect>
                    <rect id="Rectangle" x="3.1796875" y="72.890625" width="7" height="2"></rect>
                    <rect id="Rectangle" x="3.1796875" y="74.890625" width="7" height="2"></rect>
                    <rect id="Rectangle" x="3.1796875" y="76.890625" width="7" height="2"></rect>
                    <rect id="Rectangle" x="3.1796875" y="77.890625" width="7" height="2"></rect>
                    <rect id="Rectangle" x="3.1796875" y="79.890625" width="7" height="2"></rect>
                    <rect id="Rectangle" x="3.1796875" y="81.890625" width="7" height="2"></rect>
                    <rect id="Rectangle" x="3.1796875" y="83.890625" width="7" height="2"></rect>
                    <rect id="Rectangle" x="3.1796875" y="85.890625" width="7" height="2"></rect>
                    <rect id="Rectangle" x="3.1796875" y="87.890625" width="7" height="2"></rect>
                    <rect id="Rectangle" x="3.1796875" y="88.890625" width="7" height="2"></rect>
                    <rect id="Rectangle" x="3.1796875" y="90.890625" width="7" height="2"></rect>
                    <rect id="Rectangle" x="3.1796875" y="92.890625" width="7" height="2"></rect>
                    <rect id="Rectangle" x="3.1796875" y="94.890625" width="7" height="2"></rect>
                    <rect id="Rectangle" x="3.1796875" y="96.890625" width="7" height="2"></rect>
                    <rect id="Rectangle" x="3.1796875" y="98.890625" width="7" height="2"></rect>
                    <rect id="Rectangle" x="3.1796875" y="99.890625" width="7" height="2"></rect>
                    <rect id="Rectangle" x="3.1796875" y="101.890625" width="7" height="2"></rect>
                    <rect id="Rectangle" x="1.1796875" y="102.890625" width="7" height="2"></rect>
                    <rect id="Rectangle" x="3.1796875" y="139.890625" width="7" height="2"></rect>
                    <rect id="Rectangle" x="17.1796875" y="137.890625" width="7" height="2"></rect>
                    <rect id="Rectangle" x="3.1796875" y="137.890625" width="7" height="2"></rect>
                    <rect id="Rectangle" x="17.1796875" y="135.890625" width="7" height="2"></rect>
                    <rect id="Rectangle" x="3.1796875" y="135.890625" width="7" height="2"></rect>
                    <rect id="Rectangle" x="17.1796875" y="133.890625" width="7" height="2"></rect>
                    <rect id="Rectangle" x="3.1796875" y="133.890625" width="7" height="2"></rect>
                    <rect id="Rectangle" x="17.1796875" y="131.890625" width="7" height="2"></rect>
                    <rect id="Rectangle" x="3.1796875" y="131.890625" width="7" height="2"></rect>
                    <rect id="Rectangle" x="17.1796875" y="130.890625" width="7" height="2"></rect>
                    <rect id="Rectangle" x="3.1796875" y="130.890625" width="7" height="2"></rect>
                    <rect id="Rectangle" x="18.1796875" y="128.890625" width="7" height="2"></rect>
                    <rect id="Rectangle" x="19.1796875" y="126.890625" width="7" height="2"></rect>
                    <rect id="Rectangle" x="20.1796875" y="125.890625" width="7" height="2"></rect>
                    <rect id="Rectangle" x="0.1796875" y="104.890625" width="7" height="2"></rect>
                    <rect id="Rectangle" x="2.1796875" y="128.890625" width="7" height="2"></rect>
                    <rect id="Rectangle" x="1.1796875" y="126.890625" width="7" height="2"></rect>
                    <rect id="Rectangle" x="0.1796875" y="125.890625" width="7" height="2"></rect>
                    <rect id="Rectangle" x="3.1796875" y="141.890625" width="7" height="2"></rect>
                    <rect id="Rectangle" x="3.1796875" y="142.890625" width="7" height="2"></rect>
                    <rect id="Rectangle" x="3.1796875" y="144.890625" width="7" height="2"></rect>
                    <rect id="Rectangle" x="3.1796875" y="146.890625" width="7" height="2"></rect>
                    <rect id="Rectangle" x="3.1796875" y="148.890625" width="7" height="2"></rect>
                    <rect id="Rectangle" x="3.1796875" y="150.890625" width="7" height="2"></rect>
                    <rect id="Rectangle" x="3.1796875" y="152.890625" width="7" height="2"></rect>
                    <rect id="Rectangle" x="3.1796875" y="154.890625" width="7" height="2"></rect>
                    <rect id="Rectangle" x="3.1796875" y="155.890625" width="7" height="2"></rect>
                    <rect id="Rectangle" x="3.1796875" y="157.890625" width="7" height="2"></rect>
                    <rect id="Rectangle" x="3.1796875" y="159.890625" width="7" height="2"></rect>
                    <rect id="Rectangle" x="3.1796875" y="160.890625" width="7" height="2"></rect>
                    <rect id="Rectangle" x="3.1796875" y="162.890625" width="7" height="2"></rect>
                    <rect id="Rectangle" x="3.1796875" y="164.890625" width="7" height="2"></rect>
                    <rect id="Rectangle" x="3.1796875" y="166.890625" width="7" height="2"></rect>
                    <rect id="Rectangle" x="3.1796875" y="168.890625" width="7" height="2"></rect>
                    <rect id="Rectangle" x="3.1796875" y="170.890625" width="7" height="2"></rect>
                    <rect id="Rectangle" x="3.1796875" y="171.890625" width="7" height="2"></rect>
                    <rect id="Rectangle" x="3.1796875" y="173.890625" width="7" height="2"></rect>
                    <rect id="Rectangle" x="3.1796875" y="175.890625" width="7" height="2"></rect>
                    <rect id="Rectangle" x="17.1796875" y="177.890625" width="7" height="2"></rect>
                    <rect id="Rectangle" x="3.1796875" y="177.890625" width="7" height="2"></rect>
                    <rect id="Rectangle" x="2.6796875" y="179.390625" width="3" height="7"></rect>
                    <rect id="Rectangle" x="20.1796875" y="179.890625" width="2" height="7"></rect>
                    <rect id="Rectangle" x="18.1796875" y="179.890625" width="2" height="7"></rect>
                    <rect id="Rectangle" x="16.1796875" y="179.890625" width="2" height="7"></rect>
                    <rect id="Rectangle" x="14.1796875" y="179.890625" width="2" height="7"></rect>
                    <rect id="Rectangle" x="12.1796875" y="179.890625" width="2" height="7"></rect>
                    <rect id="Rectangle" x="8.6796875" y="179.390625" width="3" height="7"></rect>
                    <rect id="Rectangle" x="5.6796875" y="179.390625" width="3" height="7"></rect>
                </g>
            </g>
        </g>
    </g>
</svg>