<?xml version="1.0" encoding="UTF-8"?>
<svg width="191px" height="27px" viewBox="0 0 191 27" version="1.1" xmlns="http://www.w3.org/2000/svg" xmlns:xlink="http://www.w3.org/1999/xlink">
    <!-- Generator: Sketch 56.3 (81716) - https://sketch.com -->
    <title>Deck 04</title>
    <desc>Created with Sketch.</desc>
    <g id="Celebrity-View-1" stroke="none" stroke-width="1" fill="none" fill-rule="evenodd">
        <g id="Celebrity-Design-3D-1C" transform="translate(-1678.000000, -815.000000)">
            <g id="Group-18" transform="translate(1620.000000, 207.000000)">
                <g id="Deck-04" transform="translate(153.109375, 621.679687) rotate(-90.000000) translate(-153.109375, -621.679687) translate(140.109375, 526.179687)">
                    <rect id="Rectangle" stroke="#99B4C6" stroke-width="0.5" fill="#9DCBFF" fill-rule="nonzero" x="18.1796875" y="34.890625" width="7" height="2"></rect>
                    <rect id="Rectangle" stroke="#99B4C6" stroke-width="0.5" fill="#9DCBFF" fill-rule="nonzero" x="18.1796875" y="36.890625" width="7" height="2"></rect>
                    <rect id="Rectangle" stroke="#99B4C6" stroke-width="0.5" fill="#9DCBFF" fill-rule="nonzero" x="18.1796875" y="38.890625" width="7" height="2"></rect>
                    <rect id="Rectangle" stroke="#99B4C6" stroke-width="0.5" fill="#9DCBFF" fill-rule="nonzero" x="18.1796875" y="40.890625" width="7" height="2"></rect>
                    <rect id="Rectangle" stroke="#99B4C6" stroke-width="0.5" fill="#9DCBFF" fill-rule="nonzero" x="18.1796875" y="42.890625" width="7" height="2"></rect>
                    <rect id="Rectangle" stroke="#99B4C6" stroke-width="0.5" fill="#9DCBFF" fill-rule="nonzero" x="18.1796875" y="44.890625" width="7" height="2"></rect>
                    <rect id="Rectangle" stroke="#99B4C6" stroke-width="0.5" fill="#9DCBFF" fill-rule="nonzero" x="18.1796875" y="46.890625" width="7" height="2"></rect>
                    <rect id="Rectangle" stroke="#99B4C6" stroke-width="0.5" fill="#9DCBFF" fill-rule="nonzero" x="18.1796875" y="48.890625" width="7" height="2"></rect>
                    <rect id="Rectangle" stroke="#99B4C6" stroke-width="0.5" fill="#9DCBFF" fill-rule="nonzero" x="18.1796875" y="50.890625" width="7" height="2"></rect>
                    <rect id="Rectangle" stroke="#99B4C6" stroke-width="0.5" fill="#9DCBFF" fill-rule="nonzero" x="18.1796875" y="52.890625" width="7" height="2"></rect>
                    <rect id="Rectangle" stroke="#99B4C6" stroke-width="0.5" fill="#9DCBFF" fill-rule="nonzero" x="18.1796875" y="54.890625" width="7" height="2"></rect>
                    <rect id="Rectangle" stroke="#99B4C6" stroke-width="0.5" fill="#9DCBFF" fill-rule="nonzero" x="18.1796875" y="56.890625" width="7" height="2"></rect>
                    <rect id="Rectangle" stroke="#99B4C6" stroke-width="0.5" fill="#9DCBFF" fill-rule="nonzero" x="18.1796875" y="58.890625" width="7" height="2"></rect>
                    <rect id="Rectangle" stroke="#99B4C6" stroke-width="0.5" fill="#9DCBFF" fill-rule="nonzero" x="18.1796875" y="60.890625" width="7" height="2"></rect>
                    <rect id="Rectangle" stroke="#99B4C6" stroke-width="0.5" fill="#9DCBFF" fill-rule="nonzero" x="18.1796875" y="62.890625" width="7" height="2"></rect>
                    <rect id="Rectangle" stroke="#99B4C6" stroke-width="0.5" fill="#9DCBFF" fill-rule="nonzero" x="18.1796875" y="64.890625" width="7" height="2"></rect>
                    <rect id="Rectangle" stroke="#99B4C6" stroke-width="0.5" fill="#9DCBFF" fill-rule="nonzero" x="18.1796875" y="65.890625" width="7" height="2"></rect>
                    <rect id="Rectangle" stroke="#99B4C6" stroke-width="0.5" fill="#9DCBFF" fill-rule="nonzero" x="18.1796875" y="67.890625" width="7" height="2"></rect>
                    <rect id="Rectangle" stroke="#99B4C6" stroke-width="0.5" fill="#9DCBFF" fill-rule="nonzero" x="18.1796875" y="69.890625" width="7" height="2"></rect>
                    <rect id="Rectangle" stroke="#99B4C6" stroke-width="0.5" fill="#9DCBFF" fill-rule="nonzero" x="18.1796875" y="70.890625" width="7" height="2"></rect>
                    <rect id="Rectangle" stroke="#99B4C6" stroke-width="0.5" fill="#9DCBFF" fill-rule="nonzero" x="18.1796875" y="72.890625" width="7" height="2"></rect>
                    <rect id="Rectangle" stroke="#99B4C6" stroke-width="0.5" fill="#9DCBFF" fill-rule="nonzero" x="18.1796875" y="74.890625" width="7" height="2"></rect>
                    <rect id="Rectangle" stroke="#99B4C6" stroke-width="0.5" fill="#9DCBFF" fill-rule="nonzero" x="18.1796875" y="76.890625" width="7" height="2"></rect>
                    <rect id="Rectangle" stroke="#99B4C6" stroke-width="0.5" fill="#9DCBFF" fill-rule="nonzero" x="18.1796875" y="78.890625" width="7" height="2"></rect>
                    <rect id="Rectangle" stroke="#99B4C6" stroke-width="0.5" fill="#9DCBFF" fill-rule="nonzero" x="18.1796875" y="80.890625" width="7" height="2"></rect>
                    <rect id="Rectangle" stroke="#99B4C6" stroke-width="0.5" fill="#9DCBFF" fill-rule="nonzero" x="18.1796875" y="81.890625" width="7" height="2"></rect>
                    <rect id="Rectangle" stroke="#99B4C6" stroke-width="0.5" fill="#9DCBFF" fill-rule="nonzero" x="18.1796875" y="83.890625" width="7" height="2"></rect>
                    <rect id="Rectangle" stroke="#99B4C6" stroke-width="0.5" fill="#9DCBFF" fill-rule="nonzero" x="18.1796875" y="85.890625" width="7" height="2"></rect>
                    <rect id="Rectangle" stroke="#99B4C6" stroke-width="0.5" fill="#9DCBFF" fill-rule="nonzero" x="18.1796875" y="86.890625" width="7" height="2"></rect>
                    <rect id="Rectangle" stroke="#99B4C6" stroke-width="0.5" fill="#9DCBFF" fill-rule="nonzero" x="0.1796875" y="34.890625" width="7" height="2"></rect>
                    <rect id="Rectangle" stroke="#99B4C6" stroke-width="0.5" fill="#9DCBFF" fill-rule="nonzero" x="0.1796875" y="36.890625" width="7" height="2"></rect>
                    <rect id="Rectangle" stroke="#99B4C6" stroke-width="0.5" fill="#9DCBFF" fill-rule="nonzero" x="0.1796875" y="38.890625" width="7" height="2"></rect>
                    <rect id="Rectangle" stroke="#99B4C6" stroke-width="0.5" fill="#9DCBFF" fill-rule="nonzero" x="0.1796875" y="40.890625" width="7" height="2"></rect>
                    <rect id="Rectangle" stroke="#99B4C6" stroke-width="0.5" fill="#9DCBFF" fill-rule="nonzero" x="0.1796875" y="42.890625" width="7" height="2"></rect>
                    <rect id="Rectangle" stroke="#99B4C6" stroke-width="0.5" fill="#9DCBFF" fill-rule="nonzero" x="0.1796875" y="44.890625" width="7" height="2"></rect>
                    <rect id="Rectangle" stroke="#99B4C6" stroke-width="0.5" fill="#9DCBFF" fill-rule="nonzero" x="0.1796875" y="46.890625" width="7" height="2"></rect>
                    <rect id="Rectangle" stroke="#99B4C6" stroke-width="0.5" fill="#9DCBFF" fill-rule="nonzero" x="0.1796875" y="48.890625" width="7" height="2"></rect>
                    <rect id="Rectangle" stroke="#99B4C6" stroke-width="0.5" fill="#9DCBFF" fill-rule="nonzero" x="0.1796875" y="50.890625" width="7" height="2"></rect>
                    <rect id="Rectangle" stroke="#99B4C6" stroke-width="0.5" fill="#9DCBFF" fill-rule="nonzero" x="0.1796875" y="52.890625" width="7" height="2"></rect>
                    <rect id="Rectangle" stroke="#99B4C6" stroke-width="0.5" fill="#9DCBFF" fill-rule="nonzero" x="0.1796875" y="54.890625" width="7" height="2"></rect>
                    <rect id="Rectangle" stroke="#99B4C6" stroke-width="0.5" fill="#9DCBFF" fill-rule="nonzero" x="0.1796875" y="56.890625" width="7" height="2"></rect>
                    <rect id="Rectangle" stroke="#99B4C6" stroke-width="0.5" fill="#9DCBFF" fill-rule="nonzero" x="0.1796875" y="58.890625" width="7" height="2"></rect>
                    <rect id="Rectangle" stroke="#99B4C6" stroke-width="0.5" fill="#9DCBFF" fill-rule="nonzero" x="0.1796875" y="60.890625" width="7" height="2"></rect>
                    <rect id="Rectangle" stroke="#99B4C6" stroke-width="0.5" fill="#9DCBFF" fill-rule="nonzero" x="0.1796875" y="62.890625" width="7" height="2"></rect>
                    <rect id="Rectangle" stroke="#99B4C6" stroke-width="0.5" fill="#9DCBFF" fill-rule="nonzero" x="0.1796875" y="64.890625" width="7" height="2"></rect>
                    <rect id="Rectangle" stroke="#99B4C6" stroke-width="0.5" fill="#9DCBFF" fill-rule="nonzero" x="0.1796875" y="65.890625" width="7" height="2"></rect>
                    <rect id="Rectangle" stroke="#99B4C6" stroke-width="0.5" fill="#9DCBFF" fill-rule="nonzero" x="0.1796875" y="67.890625" width="7" height="2"></rect>
                    <rect id="Rectangle" stroke="#99B4C6" stroke-width="0.5" fill="#9DCBFF" fill-rule="nonzero" x="0.1796875" y="69.890625" width="7" height="2"></rect>
                    <rect id="Rectangle" stroke="#99B4C6" stroke-width="0.5" fill="#9DCBFF" fill-rule="nonzero" x="0.1796875" y="70.890625" width="7" height="2"></rect>
                    <rect id="Rectangle" stroke="#99B4C6" stroke-width="0.5" fill="#9DCBFF" fill-rule="nonzero" x="0.1796875" y="72.890625" width="7" height="2"></rect>
                    <rect id="Rectangle" stroke="#99B4C6" stroke-width="0.5" fill="#9DCBFF" fill-rule="nonzero" x="0.1796875" y="74.890625" width="7" height="2"></rect>
                    <rect id="Rectangle" stroke="#99B4C6" stroke-width="0.5" fill="#9DCBFF" fill-rule="nonzero" x="0.1796875" y="76.890625" width="7" height="2"></rect>
                    <rect id="Rectangle" stroke="#99B4C6" stroke-width="0.5" fill="#9DCBFF" fill-rule="nonzero" x="0.1796875" y="78.890625" width="7" height="2"></rect>
                    <rect id="Rectangle" stroke="#99B4C6" stroke-width="0.5" fill="#9DCBFF" fill-rule="nonzero" x="0.1796875" y="80.890625" width="7" height="2"></rect>
                    <rect id="Rectangle" stroke="#99B4C6" stroke-width="0.5" fill="#9DCBFF" fill-rule="nonzero" x="0.1796875" y="81.890625" width="7" height="2"></rect>
                    <rect id="Rectangle" stroke="#99B4C6" stroke-width="0.5" fill="#9DCBFF" fill-rule="nonzero" x="0.1796875" y="83.890625" width="7" height="2"></rect>
                    <rect id="Rectangle" stroke="#99B4C6" stroke-width="0.5" fill="#9DCBFF" fill-rule="nonzero" x="0.1796875" y="85.890625" width="7" height="2"></rect>
                    <rect id="Rectangle" stroke="#99B4C6" stroke-width="0.5" fill="#9DCBFF" fill-rule="nonzero" x="0.1796875" y="86.890625" width="7" height="2"></rect>
                    <path d="M0.6796875,89.390625 L0.6796875,184.574697 L0.766471532,184.896472 L0.89354815,185.195722 L1.04851963,185.446706 L1.23448542,185.671948 L2.12402174,186.598658 L2.5579419,187.065231 C3.50326796,188.001594 4.45479288,189.179288 5.44970982,190.015902 L5.70696248,190.176789 L5.98901058,190.299063 L6.24936268,190.363418 L6.51901306,190.379507 L17.8381303,190.379507 C20.4633473,190.328023 20.3486684,190.765636 22.0440565,188.925087 L22.9304934,187.991941 L23.3675129,187.531804 L24.6909694,186.138521 L25.1217902,185.671948 C25.4168054,185.372969 25.6122474,184.984073 25.6796875,184.561826 L25.6796875,89.390625" id="IDP-Deck03" stroke="#9DCBFF" stroke-linecap="round" stroke-linejoin="round"></path>
                    <path d="M25.1796875,34.890625 L25.1796875,28.337758 C24.8790428,20.1266668 24.07939,11.9507888 21.9872749,3.62765541 L22.0120703,3.08665174 L22.0368658,2.55845289 L22.0895561,1.5084576 C22.0430646,1.28117203 21.9872749,1.11470936 21.9283857,0.890625 L3.41859154,0.890625 C3.36590124,1.09550213 3.31631036,1.30037926 3.26671949,1.50525639 L3.29771378,2.20311912 L3.33180751,2.91058546 L3.36900067,3.62445421 C1.35747079,11.6146623 0.4927299,20.1010572 0.1796875,28.337758 L0.1796875,34.890625" id="IDP-Deck03-2" stroke="#9DCBFF" stroke-linecap="round" stroke-linejoin="round"></path>
                </g>
            </g>
        </g>
    </g>
</svg>