<?xml version="1.0" encoding="UTF-8"?>
<svg width="192px" height="27px" viewBox="0 0 192 27" version="1.1" xmlns="http://www.w3.org/2000/svg" xmlns:xlink="http://www.w3.org/1999/xlink">
    <!-- Generator: Sketch 56.3 (81716) - https://sketch.com -->
    <title>Deck 05</title>
    <desc>Created with Sketch.</desc>
    <g id="Celebrity-View-1" stroke="none" stroke-width="1" fill="none" fill-rule="evenodd" stroke-linecap="round" stroke-linejoin="round">
        <g id="Celebrity-Design-3D-1C" transform="translate(-1677.000000, -776.000000)" stroke="#9DCBFF">
            <g id="Group-18" transform="translate(1620.000000, 207.000000)">
                <g id="Deck-05" transform="translate(153.109375, 582.679687) rotate(-90.000000) translate(-153.109375, -582.679687) translate(140.109375, 487.179687)">
                    <path d="M24.808901,3.9019095 L24.9373119,1.74422663 C24.7874992,1.14037735 24.6237752,0.522510138 24.4461401,-0.109375 L1.94533758,-0.0834957452 C1.7655623,0.563485625 1.60183838,1.18135283 1.4573761,1.77010588 L1.59220756,3.9019095 C0.311308688,9.15216332 0.1796875,21.7618302 0.1796875,27.6590654 L0.208579956,184.021523 L0.208579956,185.040519 L0.208579956,185.040519 L0.295257323,185.364009 L0.426878511,185.664856 L0.587392155,185.917178 L0.780008527,186.143622 L1.69814657,187.07851 L2.15079504,187.547571 C3.11387691,188.488929 4.11227177,189.672905 5.14276936,190.513981 L5.40922201,190.675726 L5.70135684,190.795418 L5.97423004,190.863351 L6.25352378,190.879526 L17.9967019,190.879526 C20.7158031,190.827767 20.597023,191.267714 22.3530422,189.414113 L23.2711803,188.479225 L23.7238288,188.010163 L25.0946153,186.612683 L25.5408432,186.143622 C25.8469574,185.843459 26.0494887,185.452296 26.1186923,185.027579 L26.1186923,184.312665 C26.1186923,135.789062 26.1796875,76.1406144 26.1796875,27.6234814 C26.1636361,22.6190805 26.0416458,8.65398766 24.808901,3.9019095 Z" id="Deck05"></path>
                </g>
            </g>
        </g>
    </g>
</svg>